HIERARCHY
ROOT ui
{
	 OFFSET 0 0 0
	 CHANNELS 3 XPosition YPosition Z Position
	 EndSite
	 {
	 OFFSET 0 -1 0
	 }
}
ROOT li
{
	 OFFSET 0 0 0
	 CHANNELS 3 XPosition YPosition Z Position
	 EndSite
	 {
	 OFFSET 0 -1 0
	 }
}
ROOT ul
{
	 OFFSET 0 0 0
	 CHANNELS 3 XPosition YPosition Z Position
	 EndSite
	 {
	 OFFSET 0 -1 0
	 }
}
ROOT ll
{
	 OFFSET 0 0 0
	 CHANNELS 3 XPosition YPosition Z Position
	 EndSite
	 {
	 OFFSET 0 -1 0
	 }
}
ROOT tt
{
	 OFFSET 0 0 0
	 CHANNELS 3 XPosition YPosition Z Position
	 EndSite
	 {
	 OFFSET 0 -1 0
	 }
}
ROOT tb
{
	 OFFSET 0 0 0
	 CHANNELS 3 XPosition YPosition Z Position
	 EndSite
	 {
	 OFFSET 0 -1 0
	 }
}
ROOT td
{
	 OFFSET 0 0 0
	 CHANNELS 3 XPosition YPosition Z Position
	 EndSite
	 {
	 OFFSET 0 -1 0
	 }
}
ROOT v
{
	 OFFSET 0 0 0
	 CHANNELS 3 XPosition YPosition Z Position
	 EndSite
	 {
	 OFFSET 0 -1 0
	 }
}
ROOT bn
{
	 OFFSET 0 0 0
	 CHANNELS 3 XPosition YPosition Z Position
	 EndSite
	 {
	 OFFSET 0 -1 0
	 }
}
MOTION
Frames: 29
Frame Time: 0.002
-0.005706048965454101	-0.005382008075714111	0		0.5081199035644531	-2.48218505859375	0		-1.037332763671875	0.024474395751953124	0		-0.718416748046875	-2.609793212890625	0		1.802718017578125	-1.202628173828125	0		3.272720458984375	-0.34034622192382813	0		4.53218603515625	0.05670523452758789	0		5.9618662109375	0.5186571044921875	0		-0.2718300170898437	5.90046728515625	0		
-0.004856982231140137	0.006099427223205566	0		0.5018601989746094	-2.46860595703125	0		-0.9505146484375	0.03344046401977539	0		-0.6551907348632813	-2.62442041015625	0		1.7967357177734375	-1.1781275634765624	0		3.271018310546875	-0.358017333984375	0		4.5253251953125	0.02905289840698242	0		5.9653974609375	0.5107334594726562	0		-0.13945166015625	5.92056103515625	0		
-0.003348752975463867	-0.001467121958732605	0		0.5071413879394531	-2.481272705078125	0		-1.041695068359375	0.043632568359375	0		-0.6658969116210938	-2.635730224609375	0		1.7418511962890626	-1.14875	0		3.25554638671875	-0.3634495849609375	0		4.492693359375	0.01386678123474121	0		5.96508056640625	0.5108780212402344	0		-0.1394747314453125	5.921037109375	0		
0.018243471145629884	-0.00543848991394043	0		0.5477024536132813	-2.480619873046875	0		-0.9879954833984375	0.045120525360107425	0		-0.6056600952148438	-2.652386474609375	0		1.718059326171875	-1.1159639892578126	0		3.20700390625	-0.37328707885742185	0		4.47516357421875	0.003397885084152222	0		5.964775390625	0.5110225524902344	0		-0.13951824951171876	5.92147705078125	0		
-0.0070431060791015625	-0.0035816988945007325	0		0.505240966796875	-2.482470458984375	0		-1.0632713623046874	0.04794343185424805	0		-0.6742907104492187	-2.662706787109375	0		1.66734033203125	-1.080703857421875	0		3.165667724609375	-0.37326821899414064	0		4.4614873046875	-0.01615060234069824	0		5.96448779296875	0.5111679077148438	0		-0.1386158447265625	5.91986083984375	0		
-0.007325385093688965	-0.0032247838973999024	0		0.5157391967773437	-2.489334228515625	0		-0.9863613891601563	0.057910472869873046	0		-0.6807774658203125	-2.6682138671875	0		1.626582275390625	-1.0496524658203126	0		3.1760927734375	-0.3882250061035156	0		4.44198583984375	-0.027598548889160156	0		5.97320361328125	0.5101463623046875	0		-0.25490858459472654	5.9093720703125	0		
-4.647909998893738E-4	0.002961445093154907	0		0.48371926879882815	-2.47244189453125	0		-1.0593369140625	0.0736072998046875	0		-0.6821416625976563	-2.6698583984375	0		1.5869210205078126	-1.0156471557617188	0		3.15000341796875	-0.3785204162597656	0		4.42455322265625	-0.03709456253051758	0		5.96813671875	0.5193798217773438	0		-0.13778289794921875	5.91952490234375	0		
0.01719210433959961	-0.004094699859619141	0		0.5322577514648438	-2.483084228515625	0		-1.0014624633789062	0.0778310317993164	0		-0.69567138671875	-2.683322021484375	0		1.52943994140625	-0.9743372192382812	0		3.11232666015625	-0.40262542724609374	0		4.408880859375	-0.06163756561279297	0		5.963791015625	0.5115938720703125	0		-0.15302024841308592	5.9110849609375	0		
-0.00794981813430786	-0.002393749952316284	0		0.5040726928710938	-2.481336669921875	0		-1.0134193725585938	0.08930661010742187	0		-0.63419140625	-2.70022216796875	0		1.5346287841796875	-0.9542236938476563	0		3.08821484375	-0.39899789428710936	0		4.36955419921875	-0.06975204467773438	0		5.96363525390625	0.5117257385253906	0		-0.1540621795654297	5.9123427734375	0		
0.016912723541259767	-0.0036609480381011965	0		0.5159428100585938	-2.480369140625	0		-1.01353271484375	0.08951704406738281	0		-0.67640771484375	-2.70323486328125	0		1.4882353515625	-0.9141787109375	0		3.09868408203125	-0.4210408935546875	0		4.3670673828125	-0.08957009124755859	0		5.95552880859375	0.5119953308105468	0		-0.13893597412109376	5.92126171875	0		
-0.008125024795532227	-0.002036940097808838	0		0.4768845520019531	-2.4784892578125	0		-1.0095374145507812	0.09261071014404297	0		-0.6358353881835938	-2.7218291015625	0		1.4526004638671874	-0.8903674926757813	0		3.042945556640625	-0.4028714599609375	0		4.3477861328125	-0.10109575653076172	0		5.96445263671875	0.51093212890625	0		-0.27229086303710937	5.90389990234375	0		
0.023976705551147462	0.0034893589019775392	0		0.5317977905273438	-2.482392822265625	0		-1.0213343505859376	0.10396195220947266	0		-0.6728334350585937	-2.720013427734375	0		1.4534088134765626	-0.84626220703125	0		3.02941943359375	-0.430522705078125	0		4.32856103515625	-0.11264710235595703	0		5.9724501953125	0.5108650512695313	0		-0.2864569396972656	5.893287109375	0		
-0.008076709747314453	-0.0018253439664840697	0		0.5038609008789062	-2.480785888671875	0		-1.02718701171875	0.10916679382324218	0		-0.655835205078125	-2.722237548828125	0		1.4529599609375	-0.8191672973632812	0		3.023601318359375	-0.4233395080566406	0		4.31729833984375	-0.1293734893798828	0		5.96352587890625	0.5120896606445312	0		-0.1539865264892578	5.912916015625	0		
0.017009241104125977	-0.0032341079711914063	0		0.5159766845703125	-2.479954833984375	0		-1.0329835205078124	0.11433822631835938	0		-0.6520355834960937	-2.73825	0		1.4047445068359374	-0.7822102661132813	0		2.9834921875	-0.4345478515625	0		4.2981865234375	-0.1409779357910156	0		5.96363671875	0.5121229248046875	0		-0.154835693359375	5.91399169921875	0		
-0.007805187225341797	-0.0017418949604034424	0		0.500023681640625	-2.48563037109375	0		-1.028765380859375	0.11729280853271484	0		-0.6569911499023438	-2.744127197265625	0		1.40720263671875	-0.7662271728515625	0		2.9747109375	-0.4313619079589844	0		4.29114501953125	-0.15183029174804688	0		5.96863232421875	0.5030422668457031	0		-0.2860629272460937	5.893462890625	0		
0.017384445190429688	-0.003207329988479614	0		0.5022695617675781	-2.483668701171875	0		-1.020405029296875	0.12514393615722658	0		-0.728695556640625	-2.738785888671875	0		1.4130465087890625	-0.7323282470703125	0		2.9615341796875	-0.4521204833984375	0		4.2659892578125	-0.17136747741699218	0		5.9649951171875	0.5111066284179687	0		-0.138289794921875	5.9217197265625	0		
0.002849426984786987	0.008046673774719239	0		0.5056194458007812	-2.4787490234375	0		-1.0278853759765625	0.13926712036132813	0		-0.6565252685546875	-2.744149658203125	0		1.4245628662109375	-0.7185591430664062	0		2.945204345703125	-0.42983135986328125	0		4.27717041015625	-0.175595458984375	0		5.968419921875	0.5200252685546874	0		-0.2723624572753906	5.9051953125	0		
0.017937416076660155	-0.003274342060089111	0		0.5048822021484375	-2.480772705078125	0		-1.027590087890625	0.13922174072265625	0		-0.6644098510742188	-2.754043701171875	0		1.4281756591796875	-0.7016589965820312	0		2.910134033203125	-0.4492144775390625	0		4.2582646484375	-0.18627577209472657	0		5.96554736328125	0.5110495910644531	0		-0.1538743438720703	5.91495166015625	0		
-0.00671538782119751	-0.0018695729970932007	0		0.4912937927246094	-2.476571044921875	0		-1.03724609375	0.14034280395507812	0		-0.671203125	-2.7609755859375	0		1.4098785400390625	-0.68136328125	0		2.92336474609375	-0.45450399780273437	0		4.25136767578125	-0.19818600463867186	0		5.960740234375	0.5041084899902344	0		-0.15453767395019533	5.91690869140625	0		
-0.006373194217681885	-0.0019442030191421508	0		0.47554510498046876	-2.48234326171875	0		-1.0428109130859375	0.14537149047851564	0		-0.67595166015625	-2.7669609375	0		1.4102255859375	-0.6814276123046875	0		2.913600341796875	-0.4603701477050781	0		4.241470703125	-0.21104129028320312	0		5.9533779296875	0.520223388671875	0		-0.14005484008789063	5.92657080078125	0		
-0.00602389907836914	-0.0020293359756469727	0		0.5116912231445313	-2.4950908203125	0		-1.042463134765625	0.14527537536621093	0		-0.6776099243164062	-2.769015625	0		1.272698974609375	-0.673931640625	0		2.89914306640625	-0.45014706420898437	0		4.24485888671875	-0.2091375732421875	0		5.9665517578125	0.5109611206054687	0		-0.13976834106445313	5.926484375	0		
-0.004472878932952881	0.008858365058898926	0		0.4793753356933594	-2.47856494140625	0		-1.0498568115234375	0.15931559753417968	0		-0.679261962890625	-2.7710791015625	0		1.269999755859375	-0.6769495849609375	0		2.89097705078125	-0.4780453796386719	0		4.23085791015625	-0.2279074249267578	0		5.95406103515625	0.5201915283203125	0		-0.1546678466796875	5.9176708984375	0		
-0.005341246128082276	-0.002215991020202637	0		0.5285576782226562	-2.48956005859375	0		-0.9796284790039063	0.15290451049804688	0		-0.68397265625	-2.77609130859375	0		1.212282470703125	-0.6799456787109375	0		2.91155859375	-0.4654664306640625	0		4.24006591796875	-0.2350987548828125	0		5.96238720703125	0.5200457763671875	0		-0.2736127014160156	5.90878564453125	0		
-0.005023049831390381	-0.0023107199668884275	0		0.49111386108398436	-2.478941650390625	0		-0.9911255493164063	0.16301271057128905	0		-0.6646065063476563	-2.776551025390625	0		1.2765465087890624	-0.684204833984375	0		2.86770751953125	-0.47468923950195313	0		4.23629638671875	-0.2400400390625	0		5.95054931640625	0.5122852172851563	0		-0.15520130920410155	5.91849462890625	0		
-0.009653176307678223	0.0016895869970321655	0		0.4914587707519531	-2.4790234375	0		-1.00403564453125	0.15214393615722657	0		-0.7032674560546875	-2.77693310546875	0		1.2305665283203124	-0.6994153442382812	0		2.895895751953125	-0.48124078369140627	0		4.25031591796875	-0.25530291748046874	0		5.9549814453125	0.5202383422851562	0		-0.2883923645019531	5.8998681640625	0		
-0.004460619926452637	-0.002487903118133545	0		0.47770904541015624	-2.482838134765625	0		-1.0586324462890624	0.16005337524414062	0		-0.691107666015625	-2.786254638671875	0		1.2336636962890626	-0.709527587890625	0		2.886175537109375	-0.48107754516601564	0		4.24444189453125	-0.2631826171875	0		5.96421728515625	0.5191171875	0		-0.12552315521240234	5.93777099609375	0		
0.005960206031799317	0.00724931812286377	0		0.5080378723144531	-2.481457763671875	0		-1.054325439453125	0.16387733459472656	0		-0.68772998046875	-2.7824033203125	0		1.2277529296875	-0.7184617309570313	0		2.911531494140625	-0.4755478210449219	0		4.24774072265625	-0.2602131958007812	0		5.97658837890625	0.5269605102539062	0		-0.1405913543701172	5.928970703125	0		
-0.002814030885696411	0.008351402282714844	0		0.4684445495605469	-2.473771240234375	0		-0.9941893920898438	0.15967868041992186	0		-0.6704913330078125	-2.784798828125	0		1.237717529296875	-0.7326759643554688	0		2.867591064453125	-0.4837221374511719	0		4.25756396484375	-0.2813475341796875	0		5.95565478515625	0.520441162109375	0		-0.2890870361328125	5.90064013671875	0		
-0.0038442020416259767	-0.0026786720752716067	0		0.4925912170410156	-2.479249755859375	0		-1.01398095703125	0.1619684600830078	0		-0.70721484375	-2.783186279296875	0		1.2138597412109375	-0.7352482299804688	0		2.901826904296875	-0.48131820678710935	0		4.25465283203125	-0.28622076416015624	0		5.95581298828125	0.5205599975585937	0		-0.14249847412109376	5.93088525390625	0		
